<?xml version="1.0" encoding="UTF-8"?>
<svg xmlns="http://www.w3.org/2000/svg" xmlns:xlink="http://www.w3.org/1999/xlink" viewBox="0 0 100 100" width="100px" height="100px">
<g id="surface11787683">
<path style=" stroke:none;fill-rule:nonzero;fill:rgb(100%,100%,100%);fill-opacity:1;" d="M 12 10 C 10.894531 10 10 10.894531 10 12 L 10 90 C 10 91.105469 10.894531 92 12 92 L 90 92 C 91.105469 92 92 91.105469 92 90 L 92 12 C 92 10.894531 91.105469 10 90 10 Z M 14 14 L 88 14 L 88 36 L 38 36 C 36.894531 36 36 36.894531 36 38 L 36 64 C 36 65.105469 36.894531 66 38 66 L 62 66 L 62 88 L 14 88 Z M 40 40 L 88 40 L 88 88 L 66 88 L 66 64 C 66 62.894531 65.105469 62 64 62 L 40 62 Z M 40 40 "/>
</g>
</svg>
