<?xml version="1.0" encoding="UTF-8"?>
<svg xmlns="http://www.w3.org/2000/svg" xmlns:xlink="http://www.w3.org/1999/xlink" viewBox="0 0 100 100" width="100px" height="100px">
<g id="surface11785903">
<path style=" stroke:none;fill-rule:nonzero;fill:rgb(100%,100%,100%);fill-opacity:1;" d="M 62.5 50 C 62.5 56.902344 56.902344 62.5 50 62.5 C 43.097656 62.5 37.5 56.902344 37.5 50 C 37.5 43.097656 43.097656 37.5 50 37.5 C 56.902344 37.5 62.5 43.097656 62.5 50 Z M 62.5 50 "/>
<path style=" stroke:none;fill-rule:nonzero;fill:rgb(100%,100%,100%);fill-opacity:1;" d="M 35.605469 34.976562 L 29.835938 28.957031 C 24.296875 34.265625 20.832031 41.722656 20.832031 50 C 20.832031 58.277344 24.296875 65.734375 29.835938 71.042969 L 35.605469 65.023438 C 31.644531 61.226562 29.167969 55.902344 29.167969 50 C 29.167969 44.097656 31.644531 38.769531 35.605469 34.976562 Z M 35.605469 34.976562 "/>
<path style=" stroke:none;fill-rule:nonzero;fill:rgb(100%,100%,100%);fill-opacity:1;" d="M 70.164062 28.957031 L 64.394531 34.976562 C 68.355469 38.773438 70.832031 44.097656 70.832031 50 C 70.832031 55.902344 68.355469 61.226562 64.394531 65.023438 L 70.164062 71.042969 C 75.703125 65.734375 79.167969 58.277344 79.167969 50 C 79.167969 41.722656 75.703125 34.265625 70.164062 28.957031 Z M 70.164062 28.957031 "/>
<path style=" stroke:none;fill-rule:nonzero;fill:rgb(100%,100%,100%);fill-opacity:1;" d="M 24.085938 22.960938 L 18.296875 16.917969 C 9.59375 25.261719 4.167969 36.992188 4.167969 50 C 4.167969 63.007812 9.59375 74.738281 18.296875 83.082031 L 24.085938 77.039062 C 16.960938 70.210938 12.5 60.625 12.5 50 C 12.5 39.375 16.960938 29.789062 24.085938 22.960938 Z M 24.085938 22.960938 "/>
<path style=" stroke:none;fill-rule:nonzero;fill:rgb(100%,100%,100%);fill-opacity:1;" d="M 81.703125 16.917969 L 75.914062 22.960938 C 83.039062 29.789062 87.5 39.375 87.5 50 C 87.5 60.625 83.039062 70.210938 75.914062 77.039062 L 81.703125 83.082031 C 90.40625 74.738281 95.832031 63.007812 95.832031 50 C 95.832031 36.992188 90.40625 25.261719 81.703125 16.917969 Z M 81.703125 16.917969 "/>
</g>
</svg>
